# xmcd CD database file
#
# Track frame offsets:
#	150
#	5098
#	8022
#	13892
#	16699
#	19962
#	27538
#	30073
#	37913
#	46061
#	48080
#	51521
#	58998
#	72224
#	83156
#	92707
#	102348
#	111937
#	114821
#	126118
#	142731
#	157900
#	171899
#	186000
#	189635
#	197689
#	205948
#	211276
#	223173
#	229981
#	239624
#	256562
#	272059
#	280269
#
# Disc length: 3958 seconds
#
# Revision: 0
# Processed by: cddbd v1.5.2PL0 Copyright (c) Steve Scherf et al.
# Submitted via: CDex 1.51
#
DISCID=cf0f7422
DTITLE=Laure Calamy - Les Symphonies Subaquatiques
DYEAR=1900
DGENRE=Enfants
TTITLE0=Le diner
TTITLE1=Le recif - 1
TTITLE2=Le recif - 2
TTITLE3=Jack le merou - 1
TTITLE4=Jack le merou - 2
TTITLE5=Sissi la sirene - 1
TTITLE6=Sissi la sirene - 2
TTITLE7=Hermann le cachalot - 1
TTITLE8=Hermann le cachalot - 2
TTITLE9=Hermann le cachalot - 3
TTITLE10=Le grand voyage - 1
TTITLE11=Le grand voyage - 2
TTITLE12=Le grand voyage - 3
TTITLE13=Le grand voyage - 4
TTITLE14=Le 6eme continent - 1
TTITLE15=Le 6eme continent - 2
TTITLE16=Le 6eme continent - 3
TTITLE17=Sheila la pieuvre - 1
TTITLE18=Sheila la pieuvre - 2
TTITLE19=Sheila la pieuvre - 3
TTITLE20=Phoebus le dauphin -1
TTITLE21=Phoebus le dauphin - 2
TTITLE22=Phoebus le dauphin - 3
TTITLE23=Marée de lune
TTITLE24=Chanson de sissi
TTITLE25=Ami cachalot
TTITLE26=Le Grand départ
TTITLE27=Chanson de Hermann
TTITLE28=Tahiti
TTITLE29=Chanson de Spiruline
TTITLE30=Chanson de sheila
TTITLE31=Chanson de phoebus
TTITLE32=Final
TTITLE33=Portraits techno
EXTD=
EXTT0=
EXTT1=
EXTT2=
EXTT3=
EXTT4=
EXTT5=
EXTT6=
EXTT7=
EXTT8=
EXTT9=
EXTT10=
EXTT11=
EXTT12=
EXTT13=
EXTT14=
EXTT15=
EXTT16=
EXTT17=
EXTT18=
EXTT19=
EXTT20=
EXTT21=
EXTT22=
EXTT23=
EXTT24=
EXTT25=
EXTT26=
EXTT27=
EXTT28=
EXTT29=
EXTT30=
EXTT31=
EXTT32=
EXTT33=
PLAYORDER=
